<svg width="21" height="21" viewBox="0 0 21 21" fill="none" xmlns="http://www.w3.org/2000/svg">
<path d="M15.1961 7.98279C15.1961 8.2038 15.2839 8.41577 15.4402 8.57205C15.5965 8.72833 15.8084 8.81612 16.0294 8.81612C16.2504 8.81612 16.4624 8.72833 16.6187 8.57205C16.775 8.41577 16.8628 8.2038 16.8628 7.98279V4.39112C16.8628 4.17011 16.775 3.95815 16.6187 3.80187C16.4624 3.64559 16.2504 3.55779 16.0294 3.55779H12.4461C12.2251 3.55779 12.0131 3.64559 11.8568 3.80187C11.7006 3.95815 11.6128 4.17011 11.6128 4.39112C11.6128 4.61214 11.7006 4.8241 11.8568 4.98038C12.0131 5.13666 12.2251 5.22446 12.4461 5.22446H14.0211L10.1961 9.04946L5.32943 4.19112C5.17001 4.0546 4.96495 3.98326 4.75522 3.99136C4.54549 3.99947 4.34654 4.08641 4.19813 4.23482C4.04971 4.38323 3.96277 4.58218 3.95467 4.79191C3.94657 5.00164 4.01791 5.20671 4.15443 5.36612L9.01276 10.2245L3.7711 15.4661C3.69299 15.5436 3.63099 15.6358 3.58869 15.7373C3.54638 15.8389 3.5246 15.9478 3.5246 16.0578C3.5246 16.1678 3.54638 16.2767 3.58869 16.3783C3.63099 16.4798 3.69299 16.572 3.7711 16.6495C3.84856 16.7276 3.94073 16.7896 4.04228 16.8319C4.14383 16.8742 4.25275 16.896 4.36276 16.896C4.47277 16.896 4.58169 16.8742 4.68324 16.8319C4.78479 16.7896 4.87696 16.7276 4.95443 16.6495L15.1961 6.40779V7.98279Z" fill="#8996B8" fill-opacity="0.6"/>
<path d="M16.0294 11.6245C15.8084 11.6245 15.5965 11.7123 15.4402 11.8685C15.2839 12.0248 15.1961 12.2368 15.1961 12.4578V14.0495L12.8794 11.7245C12.7225 11.5675 12.5097 11.4794 12.2878 11.4794C12.0658 11.4794 11.853 11.5675 11.6961 11.7245C11.5392 11.8814 11.451 12.0942 11.451 12.3161C11.451 12.538 11.5392 12.7509 11.6961 12.9078L14.0044 15.2245H12.4378C12.2167 15.2245 12.0048 15.3123 11.8485 15.4685C11.6922 15.6248 11.6044 15.8368 11.6044 16.0578C11.6044 16.2788 11.6922 16.4908 11.8485 16.647C12.0048 16.8033 12.2167 16.8911 12.4378 16.8911H16.0294C16.147 16.8918 16.2634 16.8677 16.371 16.8202C16.4786 16.7727 16.5749 16.703 16.6536 16.6156C16.7323 16.5282 16.7917 16.4252 16.8277 16.3132C16.8638 16.2013 16.8757 16.083 16.8628 15.9661V12.4578C16.8628 12.2368 16.775 12.0248 16.6187 11.8685C16.4624 11.7123 16.2504 11.6245 16.0294 11.6245Z" fill="#8996B8" fill-opacity="0.6"/>
</svg>
