<svg width="21" height="21" viewBox="0 0 21 21" fill="none" xmlns="http://www.w3.org/2000/svg">
<path d="M5.4628 14.2166L5.84848 13.5734L5.67042 13.4666H5.4628V14.2166ZM5.4628 6.22185V6.97185H5.67042L5.84848 6.86508L5.4628 6.22185ZM12.1295 2.22446H12.8795C12.8795 1.95429 12.7342 1.705 12.4991 1.57186C12.264 1.43872 11.9755 1.44229 11.7438 1.58123L12.1295 2.22446ZM12.1295 18.214L11.7438 18.8573C11.9755 18.9962 12.264 18.9998 12.4991 18.8666C12.7342 18.7335 12.8795 18.4842 12.8795 18.214H12.1295ZM5.4628 13.4666H2.79613V14.9666H5.4628V13.4666ZM2.79613 13.4666C2.47339 13.4666 2.2128 13.2059 2.2128 12.8842H0.712795C0.712795 14.0362 1.64686 14.9666 2.79613 14.9666V13.4666ZM2.2128 12.8842V7.55431H0.712795V12.8842H2.2128ZM2.2128 7.55431C2.2128 7.23262 2.47339 6.97185 2.79613 6.97185V5.47185C1.64686 5.47185 0.712795 6.4023 0.712795 7.55431H2.2128ZM2.79613 6.97185H5.4628V5.47185H2.79613V6.97185ZM5.84848 6.86508L12.5151 2.86769L11.7438 1.58123L5.07711 5.57862L5.84848 6.86508ZM11.3795 2.22446V18.214H12.8795V2.22446H11.3795ZM12.5151 17.5708L5.84848 13.5734L5.07711 14.8599L11.7438 18.8573L12.5151 17.5708ZM14.0461 8.22446V12.2245H15.5461V8.22446H14.0461Z" fill="#8996B8" fill-opacity="0.6"/>
</svg>
