<svg width="21" height="21" viewBox="0 0 21 21" fill="none" xmlns="http://www.w3.org/2000/svg">
<path d="M6.02802 6.08709H14.3614V7.57875C14.3614 7.95375 14.8114 8.13709 15.0697 7.87042L17.3947 5.54542C17.5614 5.37875 17.5614 5.12042 17.3947 4.95375L15.0697 2.62875C15.0109 2.57117 14.9365 2.53226 14.8556 2.51693C14.7748 2.50161 14.6913 2.51055 14.6155 2.54263C14.5398 2.57471 14.4752 2.6285 14.43 2.69721C14.3847 2.76593 14.3609 2.84649 14.3614 2.92875V4.42042H5.19469C4.73636 4.42042 4.36136 4.79542 4.36136 5.25375V8.58709C4.36136 9.04542 4.73636 9.42042 5.19469 9.42042C5.65302 9.42042 6.02802 9.04542 6.02802 8.58709V6.08709ZM14.3614 14.4204H6.02802V12.9288C6.02802 12.5538 5.57802 12.3704 5.31969 12.6371L2.99469 14.9621C2.82802 15.1288 2.82802 15.3871 2.99469 15.5538L5.31969 17.8788C5.37844 17.9363 5.45291 17.9752 5.53374 17.9906C5.61456 18.0059 5.69811 17.997 5.77386 17.9649C5.84961 17.9328 5.91417 17.879 5.9594 17.8103C6.00463 17.7416 6.02851 17.661 6.02802 17.5788V16.0871H15.1947C15.653 16.0871 16.028 15.7121 16.028 15.2538V11.9204C16.028 11.4621 15.653 11.0871 15.1947 11.0871C14.7364 11.0871 14.3614 11.4621 14.3614 11.9204V14.4204Z" fill="#8996B8" fill-opacity="0.6"/>
</svg>
